<svg width="512" height="512" viewBox="0 0 512 512" fill="none" xmlns="http://www.w3.org/2000/svg">
  <rect width="512" height="512" rx="112" fill="#101820"/>
  <circle cx="206" cy="231" r="154" fill="#FF9F1C" opacity="0.14"/>
  <path d="M122 322C158 234 236 158 330 122C306 194 306 264 350 342C278 324 210 329 122 322Z" fill="url(#mark)"/>
  <path d="M205 292C251 231 309 191 381 166C344 226 337 279 368 345C310 316 259 299 205 292Z" fill="#FFD27A" opacity="0.78"/>
  <path d="M384 132C439 145 482 188 499 243" stroke="#FF9F1C" stroke-width="28" stroke-linecap="round"/>
  <path d="M420 207C447 226 467 253 477 285" stroke="#FFD27A" stroke-width="22" stroke-linecap="round"/>
  <defs><linearGradient id="mark" x1="112" y1="112" x2="406" y2="352" gradientUnits="userSpaceOnUse"><stop stop-color="#FFD27A"/><stop offset="0.52" stop-color="#FF9F1C"/><stop offset="1" stop-color="#E85D04"/></linearGradient></defs>
</svg>
